<?xml version="1.0" standalone="no"?>
<!DOCTYPE svg PUBLIC "-//W3C//DTD SVG 20010904//EN"
 "http://www.w3.org/TR/2001/REC-SVG-20010904/DTD/svg10.dtd">
<svg version="1.0" xmlns="http://www.w3.org/2000/svg"
 width="700.000000pt" height="700.000000pt" viewBox="0 0 700.000000 700.000000"
 preserveAspectRatio="xMidYMid meet">
<metadata>
Created by potrace 1.14, written by Peter Selinger 2001-2017
</metadata>
<g transform="translate(0.000000,700.000000) scale(0.100000,-0.100000)"
fill="#000000" stroke="none">
<path d="M3145 5419 c-121 -121 -223 -219 -225 -219 -3 0 -5 36 -4 80 1 94
-14 136 -55 153 -44 19 -548 16 -578 -3 -47 -30 -47 -36 -48 -491 l0 -428
-242 -244 -243 -243 0 -1242 c0 -1362 -3 -1289 58 -1314 19 -7 519 -11 1700
-10 1540 0 1674 1 1698 16 14 10 29 28 34 42 6 16 10 502 10 1266 l0 1240 -42
42 c-24 23 -106 98 -183 166 -77 69 -142 127 -145 130 -3 3 -41 37 -85 75 -44
39 -93 82 -110 97 -16 14 -41 36 -55 48 -14 12 -45 40 -70 63 -25 23 -119 107
-210 187 -90 80 -172 152 -181 160 -8 8 -31 29 -50 45 -44 39 -213 189 -309
275 -344 308 -367 327 -407 327 -36 0 -47 -9 -258 -218z"/>
</g>
</svg>
